<?xml version="1.0" encoding="utf-8"?>
<!-- Generator: Adobe Illustrator 18.1.1, SVG Export Plug-In . SVG Version: 6.00 Build 0)  -->
<svg version="1.1" id="Layer_1" xmlns="http://www.w3.org/2000/svg" xmlns:xlink="http://www.w3.org/1999/xlink" x="0px" y="0px"
	 viewBox="0 0 346 387.3" enable-background="new 0 0 346 387.3" xml:space="preserve">
<g>
	<g>
		<path fill="#FFFFFF" d="M324.1,294.3l-139.5,80.5c-7.2,4.2-16.1,4.2-23.2,0L21.9,294.3c-7.2-4.2-11.6-11.8-11.6-20.1V113.1
			c0-8.3,4.4-16,11.6-20.1l139.5-80.5c7.2-4.2,16.1-4.2,23.2,0L324.1,93c7.2,4.2,11.6,11.8,11.6,20.1v161.1
			C335.7,282.5,331.3,290.2,324.1,294.3z"/>
		<path fill="#0FD7FF" d="M173,383.7c-5.1,0-10.1-1.3-14.5-3.9L19,299.3c-8.9-5.2-14.5-14.8-14.5-25.1V113.1
			c0-10.3,5.5-19.9,14.5-25.1L158.5,7.5c4.4-2.5,9.4-3.9,14.5-3.9c5.1,0,10.1,1.3,14.5,3.9L327,88.1c8.9,5.2,14.5,14.7,14.5,25.1
			v161.1c0,10.3-5.5,19.9-14.5,25.1l-139.5,80.5C183.1,382.3,178.1,383.7,173,383.7z M173,15c-3.1,0-6.1,0.8-8.8,2.4L24.7,97.9
			c-5.4,3.1-8.8,9-8.8,15.2v161.1c0,6.3,3.4,12.1,8.8,15.2L164.2,370c5.3,3.1,12.2,3.1,17.6,0l139.5-80.5c5.4-3.1,8.8-9,8.8-15.2
			V113.1c0-6.3-3.4-12.1-8.8-15.2L181.8,17.4C179.1,15.8,176.1,15,173,15z"/>
	</g>
	<path fill="#EFEFEF" d="M302.7,280L183,349.1c-6.2,3.6-13.8,3.6-19.9,0L43.3,280c-6.2-3.6-10-10.1-10-17.3V124.6
		c0-7.1,3.8-13.7,10-17.3L163,38.2c6.2-3.6,13.8-3.6,19.9,0l119.7,69.1c6.2,3.6,10,10.1,10,17.3v138.2
		C312.6,269.9,308.8,276.5,302.7,280z"/>
</g>
<g>
	<g>
		<line fill="none" stroke="#023550" stroke-width="4.9869" stroke-miterlimit="10" x1="57.4" y1="193.7" x2="288.6" y2="193.7"/>
		<path fill="none" stroke="#023550" stroke-width="4.9869" stroke-miterlimit="10" d="M151.5,131.4h-12.3c-14.2,0-25.6,9.8-25.6,22
			v18.2c0,12.1-11.5,22-25.6,22"/>
		<path fill="none" stroke="#023550" stroke-width="4.9869" stroke-miterlimit="10" d="M194.5,131.4h12.3c14.2,0,25.6,9.8,25.6,22
			v18.2c0,12.1,11.5,22,25.6,22"/>
		<path fill="none" stroke="#023550" stroke-width="4.9869" stroke-miterlimit="10" d="M151.5,255.9h-12.3c-14.2,0-25.6-9.8-25.6-22
			v-18.2c0-12.1-11.5-22-25.6-22"/>
		<path fill="none" stroke="#023550" stroke-width="4.9869" stroke-miterlimit="10" d="M194.5,255.9h12.3c14.2,0,25.6-9.8,25.6-22
			v-18.2c0-12.1,11.5-22,25.6-22"/>
	</g>
	<g>
		<circle fill="#EE4389" stroke="#023550" stroke-width="4.9869" stroke-miterlimit="10" cx="57.4" cy="193.7" r="6.9"/>
		<circle fill="#EE4389" stroke="#023550" stroke-width="4.9869" stroke-miterlimit="10" cx="288.6" cy="193.7" r="6.9"/>
	</g>
	<g>
		<path fill="#FFFFFF" stroke="#023550" stroke-width="4.9869" stroke-miterlimit="10" d="M190.5,153h-35.1c-2.2,0-4-1.8-4-4v-35.1
			c0-2.2,1.8-4,4-4h35.1c2.2,0,4,1.8,4,4V149C194.5,151.2,192.7,153,190.5,153z"/>
		<path fill="#FFFFFF" stroke="#023550" stroke-width="4.9869" stroke-miterlimit="10" d="M190.5,215.2h-35.1c-2.2,0-4-1.8-4-4
			v-35.1c0-2.2,1.8-4,4-4h35.1c2.2,0,4,1.8,4,4v35.1C194.5,213.4,192.7,215.2,190.5,215.2z"/>
		<path fill="#FFFFFF" stroke="#023550" stroke-width="4.9869" stroke-miterlimit="10" d="M190.5,277.4h-35.1c-2.2,0-4-1.8-4-4
			v-35.1c0-2.2,1.8-4,4-4h35.1c2.2,0,4,1.8,4,4v35.1C194.5,275.6,192.7,277.4,190.5,277.4z"/>
	</g>
</g>
</svg>
