<?xml version="1.0" encoding="UTF-8" standalone="no"?>
<svg width="206px" height="258px" viewBox="0 0 206 258" version="1.1" xmlns="http://www.w3.org/2000/svg" xmlns:xlink="http://www.w3.org/1999/xlink" xmlns:sketch="http://www.bohemiancoding.com/sketch/ns">
    <!-- Generator: Sketch Beta 3.4 (14672) - http://www.bohemiancoding.com/sketch -->
    <title>business continuity</title>
    <desc>Created with Sketch Beta.</desc>
    <defs></defs>
    <g id="Page-1" stroke="none" stroke-width="1" fill="none" fill-rule="evenodd" sketch:type="MSPage">
        <polygon id="Triangle-1" stroke="#D7AAF9" stroke-width="14" stroke-linejoin="round" sketch:type="MSShapeGroup" transform="translate(103.500000, 129.000000) rotate(-270.000000) translate(-103.500000, -129.000000) " points="103.5 33.5 224.5 224.5 -17.5 224.5 "></polygon>
        <polygon id="Triangle-1" stroke="#FFFFFF" stroke-width="8" stroke-linejoin="round" fill="#FFFFFF" sketch:type="MSShapeGroup" transform="translate(100.450413, 129.000000) rotate(-270.000000) translate(-100.450413, -129.000000) " points="100.450413 44.5495868 207.450413 213.450413 -6.54958678 213.450413 "></polygon>
        <polygon id="Triangle-1" stroke="#F0F0F0" stroke-width="8" stroke-linejoin="round" fill="#EFEFEF" sketch:type="MSShapeGroup" transform="translate(94.665289, 129.000000) rotate(-270.000000) translate(-94.665289, -129.000000) " points="94.6652893 60.3347107 181.665289 197.665289 7.66528926 197.665289 "></polygon>
        <path d="M121.01975,102.718761 L111.665114,102.718761 L103.10293,93.5850593 C101.102617,91.4577429 97.7515645,91.3519062 95.6202792,93.3469269 C93.4982546,95.3472394 93.3818343,98.696969 95.3821468,100.829577 L97.1549105,102.718761 L45.9881869,102.718761 C31.6579059,102.718761 20,114.593632 20,129.177921 C20,143.766179 31.6579059,155.637081 45.9881869,155.637081 L60.7312309,155.637081 L69.293415,164.776075 C70.3306141,165.88736 71.7382414,166.43771 73.1511605,166.43771 C74.4476594,166.43771 75.7494501,165.972029 76.7707736,165.008916 C78.9033819,163.013895 79.0092186,159.664165 77.0089061,157.526265 L75.2414342,155.637081 L121.015781,155.637081 C135.34077,155.637081 146.999999,143.772794 146.999999,129.177921 C147.003968,114.593632 135.346062,102.718761 121.01975,102.718761 L121.01975,102.718761 Z M121.01975,145.053417 L75.2454031,145.053417 L77.0181668,143.158941 C79.0131874,141.026333 78.9073508,137.675281 76.7800343,135.676291 C74.647426,133.675979 71.2976964,133.781815 69.2973839,135.914423 L60.7299079,145.048125 L45.9881869,145.048125 C37.4947966,145.048125 30.583664,137.930611 30.583664,129.172629 C30.583664,120.419939 37.4947966,113.297134 45.9881869,113.297134 L97.1496186,113.297134 L95.3821468,115.186318 C93.3805113,117.318926 93.4982546,120.668655 95.6202792,122.668968 C96.6363109,123.62679 97.9381016,124.097763 99.2451841,124.097763 C100.65678,124.097763 102.065731,123.54212 103.10293,122.430836 L111.665114,113.297134 L121.01975,113.297134 C129.507848,113.297134 136.420304,120.419939 136.420304,129.172629 C136.420304,137.930611 129.51314,145.053417 121.01975,145.053417 L121.01975,145.053417 L121.01975,145.053417 Z" id="Shape" fill="#000000" sketch:type="MSShapeGroup"></path>
    </g>
</svg>