<?xml version="1.0" encoding="utf-8"?>
<!-- Generator: Adobe Illustrator 16.0.0, SVG Export Plug-In . SVG Version: 6.00 Build 0)  -->
<!DOCTYPE svg PUBLIC "-//W3C//DTD SVG 1.1//EN" "http://www.w3.org/Graphics/SVG/1.1/DTD/svg11.dtd">
<svg version="1.1" id="Layer_1" xmlns:sketch="http://www.bohemiancoding.com/sketch/ns"
	 xmlns="http://www.w3.org/2000/svg" xmlns:xlink="http://www.w3.org/1999/xlink" x="0px" y="0px" width="206px" height="258px"
	 viewBox="0 0 206 258" enable-background="new 0 0 206 258" xml:space="preserve">
<title>high-perf db</title>
<desc>Created with Sketch Beta.</desc>
<g id="Page-1" sketch:type="MSPage">
	<g id="Triangle-1">
		
			<g transform="translate(103.500000, 129.000000) rotate(-270.000000) translate(-103.500000, -129.000000) " sketch:type="MSShapeGroup">
			<polygon id="path-2" fill="none" stroke="#8F9DEF" stroke-width="14" stroke-linejoin="round" points="103.5,33.5 224.5,224.5 
				-17.5,224.5 			"/>
		</g>
	</g>
	
		<polygon id="Triangle-1_1_" sketch:type="MSShapeGroup" fill="#FFFFFF" stroke="#FFFFFF" stroke-width="8" stroke-linejoin="round" points="
		184.9,129 16,236 16,22 	">
	</polygon>
	
		<polygon id="Triangle-1_2_" sketch:type="MSShapeGroup" fill="#EFEFEF" stroke="#F0F0F0" stroke-width="8" stroke-linejoin="round" points="
		163.33,129 26,216 26,42 	">
	</polygon>
	<g id="Group" transform="translate(29.000000, 83.000000)" sketch:type="MSLayerGroup">
		<path id="Shape" sketch:type="MSShapeGroup" d="M41,46.125c16.4,0,29.725-6.15,29.725-13.837v-0.513l0,0v-6.321
			c0-0.683-0.854-1.196-1.367-0.683c-6.32,5.125-17.254,7.858-28.358,7.858c-10.933,0-22.038-2.733-28.358-7.858
			c-0.512-0.513-1.367,0-1.367,0.683v6.321l0,0v0.513C11.275,39.804,24.6,46.125,41,46.125L41,46.125z"/>
		<ellipse id="Oval" sketch:type="MSShapeGroup" cx="41" cy="14.692" rx="29.725" ry="13.838">
		</ellipse>
		<path id="Shape_1_" sketch:type="MSShapeGroup" d="M78.754,72.945H55.692c-0.342,0-0.854-0.342-0.854-0.684v-1.365
			c0-0.855-0.683-1.539-1.538-1.539h-9.054c-0.512,0-0.854-0.342-0.854-0.854v-3.588c0-0.512,0.342-0.854,0.854-0.854
			c14.863-0.685,26.479-6.662,26.479-13.666v-0.515l0,0v-6.32c0-0.684-0.854-1.196-1.538-0.684
			c-6.32,5.126-17.254,7.858-28.187,7.858s-21.867-2.732-28.188-7.857c-0.513-0.512-1.538,0-1.538,0.684v6.32l0,0v0.514
			c0,7.174,11.617,12.982,26.479,13.666c0.512,0,0.854,0.343,0.854,0.854v3.588c0,0.513-0.342,0.854-0.854,0.854H28.7
			c-0.854,0-1.538,0.683-1.538,1.537v1.367c0,0.34-0.342,0.682-0.854,0.682H3.246c-1.366,0-2.392,1.025-2.392,2.394
			c0,1.366,1.025,2.392,2.392,2.392h23.062c0.342,0,0.854,0.342,0.854,0.684v1.367c0,0.854,0.683,1.537,1.538,1.537h24.771
			c0.854,0,1.538-0.685,1.538-1.537v-1.367c0-0.342,0.342-0.684,0.854-0.684h23.062c1.366,0,2.392-1.024,2.392-2.392
			C81.316,73.971,80.121,72.945,78.754,72.945L78.754,72.945z"/>
	</g>
</g>
</svg>
