<?xml version="1.0" encoding="UTF-8" standalone="no"?>
<svg width="206px" height="258px" viewBox="0 0 206 258" version="1.1" xmlns="http://www.w3.org/2000/svg" xmlns:xlink="http://www.w3.org/1999/xlink" xmlns:sketch="http://www.bohemiancoding.com/sketch/ns">
    <!-- Generator: Sketch Beta 3.4 (14718) - http://www.bohemiancoding.com/sketch -->
    <title>high-perf db</title>
    <desc>Created with Sketch Beta.</desc>
    <defs></defs>
    <g id="Page-1" stroke="none" stroke-width="1" fill="none" fill-rule="evenodd" sketch:type="MSPage">
        <polygon id="Triangle-1" stroke="#F8B9F8" stroke-width="14" stroke-linejoin="round" sketch:type="MSShapeGroup" transform="translate(103.500000, 129.000000) rotate(-270.000000) translate(-103.500000, -129.000000) " points="103.5 33.5 224.5 224.5 -17.5 224.5 "></polygon>
        <polygon id="Triangle-1" stroke="#FFFFFF" stroke-width="8" stroke-linejoin="round" fill="#FFFFFF" sketch:type="MSShapeGroup" transform="translate(100.450413, 129.000000) rotate(-270.000000) translate(-100.450413, -129.000000) " points="100.450413 44.5495868 207.450413 213.450413 -6.54958678 213.450413 "></polygon>
        <polygon id="Triangle-1" stroke="#F0F0F0" stroke-width="8" stroke-linejoin="round" fill="#EFEFEF" sketch:type="MSShapeGroup" transform="translate(94.665289, 129.000000) rotate(-270.000000) translate(-94.665289, -129.000000) " points="94.6652893 60.3347107 181.665289 197.665289 7.66528926 197.665289 "></polygon>
        <g id="Group" sketch:type="MSLayerGroup" transform="translate(41.000000, 90.000000)" fill="#000000">
            <path d="M58.1571429,27.6133333 C58.2414286,27.6133333 58.41,27.5288889 58.4942857,27.5288889 L58.4942857,8.19111111 C58.4942857,0.0844444444 30.68,0 29.5,0 C28.32,0 0.505714286,0.0844444444 0.505714286,8.19111111 L0.505714286,27.4444444 C0.674285714,27.4444444 0.758571429,27.5288889 0.842857143,27.6133333 C2.10714286,28.0355556 30.2585714,37.4933333 58.1571429,27.6133333 L58.1571429,27.6133333 Z M4.29857143,7.93777778 C4.46714286,7.76888889 4.72,7.6 5.05714286,7.43111111 C5.31,7.26222222 5.56285714,7.17777778 5.9,7.00888889 C6.15285714,6.84 6.49,6.75555556 6.91142857,6.58666667 C9.27142857,5.74222222 16.2671429,3.63111111 29.5,3.63111111 C42.2271429,3.63111111 49.1385714,5.57333333 51.5828571,6.33333333 C54.1114286,7.17777778 54.87,7.93777778 54.87,8.10666667 C54.87,8.10666667 54.7857143,8.19111111 54.6171429,8.36 C54.5328571,8.44444444 54.3642857,8.52888889 54.28,8.61333333 L54.1957143,8.69777778 C54.0271429,8.78222222 53.8585714,8.86666667 53.6057143,9.03555556 L53.4371429,9.12 C53.2685714,9.20444444 53.0157143,9.28888889 52.7628571,9.37333333 L52.51,9.45777778 C52.2571429,9.54222222 52.0042857,9.62666667 51.6671429,9.79555556 L51.4142857,9.88 C51.0771429,9.96444444 50.8242857,10.0488889 50.4871429,10.2177778 L50.0657143,10.3022222 C49.7285714,10.3866667 49.3914286,10.4711111 48.97,10.5555556 L48.4642857,10.64 C48.0428571,10.7244444 47.6214286,10.8088889 47.2,10.8933333 C46.9471429,10.9777778 46.61,10.9777778 46.2728571,11.0622222 L45.43,11.2311111 C45.1771429,11.3155556 44.84,11.3155556 44.5871429,11.4 L44.4185714,11.4 C44.0814286,11.4844444 43.8285714,11.4844444 43.4914286,11.5688889 C43.1542857,11.6533333 42.8171429,11.6533333 42.3957143,11.7377778 C42.0585714,11.8222222 41.6371429,11.8222222 41.3,11.9066667 C40.9628571,11.9066667 40.5414286,11.9911111 40.2042857,11.9911111 C39.7828571,12.0755556 39.3614286,12.0755556 38.94,12.0755556 C38.6028571,12.0755556 38.1814286,12.16 37.8442857,12.16 C37.3385714,12.16 36.8328571,12.2444444 36.3271429,12.2444444 L35.2314286,12.3288889 C34.6414286,12.3288889 34.0514286,12.4133333 33.4614286,12.4133333 L32.5342857,12.4133333 L29.5842857,12.4133333 L26.7185714,12.4133333 L25.7914286,12.4133333 C25.2014286,12.4133333 24.6114286,12.4133333 24.0214286,12.3288889 L22.9257143,12.2444444 C22.42,12.2444444 21.9142857,12.16 21.4085714,12.16 C21.0714286,12.16 20.65,12.0755556 20.3128571,12.0755556 C19.8914286,12.0755556 19.47,11.9911111 19.0485714,11.9911111 C18.7114286,11.9911111 18.29,11.9066667 17.9528571,11.9066667 C17.5314286,11.8222222 17.1942857,11.8222222 16.8571429,11.7377778 C16.52,11.6533333 16.0985714,11.6533333 15.7614286,11.5688889 C15.4242857,11.4844444 15.1714286,11.4844444 14.8342857,11.4 L14.3285714,11.5688889 C14.0757143,11.5688889 13.8228571,11.4844444 13.57,11.4844444 L12.7271429,11.3155556 C12.39,11.2311111 12.0528571,11.2311111 11.8,11.1466667 C11.3785714,11.0622222 10.9571429,10.9777778 10.5357143,10.8933333 L10.03,10.8088889 C9.60857143,10.7244444 9.27142857,10.64 8.93428571,10.5555556 L8.51285714,10.3866667 C8.17571429,10.3022222 7.83857143,10.2177778 7.58571429,10.0488889 L7.24857143,9.96444444 C6.99571429,9.88 6.74285714,9.79555556 6.49,9.71111111 L6.23714286,9.62666667 C5.98428571,9.54222222 5.81571429,9.45777778 5.56285714,9.28888889 L5.47857143,9.20444444 C5.31,9.12 5.05714286,9.03555556 4.88857143,8.86666667 L4.80428571,8.78222222 C4.63571429,8.69777778 4.55142857,8.61333333 4.38285714,8.44444444 C4.29857143,8.36 4.21428571,8.27555556 4.21428571,8.27555556 C4.04571429,8.19111111 4.13,8.10666667 4.29857143,7.93777778 L4.29857143,7.93777778 Z" id="Shape" sketch:type="MSShapeGroup"></path>
            <path d="M58.3257143,48.8933333 C58.41,48.8933333 58.4942857,48.8933333 58.5785714,48.8088889 L58.5785714,31.3288889 C48.97,34.5377778 39.2771429,35.72 30.5957143,35.72 C16.2671429,35.72 4.63571429,32.68 0.59,31.3288889 L0.59,49.0622222 C5.81571429,50.8355556 32.6185714,58.8577778 58.3257143,48.8933333 L58.3257143,48.8933333 Z" id="Shape" sketch:type="MSShapeGroup"></path>
            <path d="M0.505714286,52.7777778 L0.505714286,67.8088889 C0.505714286,75.9155556 28.32,76 29.5,76 C30.68,76 58.4942857,75.9155556 58.4942857,67.8088889 L58.4942857,52.6933333 C48.8014286,56.24 39.1928571,57.5066667 30.5114286,57.5066667 C16.7728571,57.5066667 5.47857143,54.4666667 0.505714286,52.7777778 L0.505714286,52.7777778 Z" id="Shape" sketch:type="MSShapeGroup"></path>
        </g>
    </g>
</svg>