<?xml version="1.0" encoding="UTF-8" standalone="no"?>
<svg width="206px" height="258px" viewBox="0 0 206 258" version="1.1" xmlns="http://www.w3.org/2000/svg" xmlns:xlink="http://www.w3.org/1999/xlink" xmlns:sketch="http://www.bohemiancoding.com/sketch/ns">
    <!-- Generator: Sketch Beta 3.4 (14672) - http://www.bohemiancoding.com/sketch -->
    <title>high-perf db</title>
    <desc>Created with Sketch Beta.</desc>
    <defs></defs>
    <g id="Page-1" stroke="none" stroke-width="1" fill="none" fill-rule="evenodd" sketch:type="MSPage">
        <polygon id="Triangle-1" stroke="#F8B9F8" stroke-width="14" stroke-linejoin="round" sketch:type="MSShapeGroup" transform="translate(103.500000, 129.000000) rotate(-270.000000) translate(-103.500000, -129.000000) " points="103.5 33.5 224.5 224.5 -17.5 224.5 "></polygon>
        <polygon id="Triangle-1" stroke="#FFFFFF" stroke-width="8" stroke-linejoin="round" fill="#FFFFFF" sketch:type="MSShapeGroup" transform="translate(100.450413, 129.000000) rotate(-270.000000) translate(-100.450413, -129.000000) " points="100.450413 44.5495868 207.450413 213.450413 -6.54958678 213.450413 "></polygon>
        <polygon id="Triangle-1" stroke="#F0F0F0" stroke-width="8" stroke-linejoin="round" fill="#EFEFEF" sketch:type="MSShapeGroup" transform="translate(94.665289, 129.000000) rotate(-270.000000) translate(-94.665289, -129.000000) " points="94.6652893 60.3347107 181.665289 197.665289 7.66528926 197.665289 "></polygon>
        <path d="M114.625,121.25 C117.594688,121.25 120,118.844688 120,115.875 L120,94.375 C120,91.4053125 117.594688,89 114.625,89 L39.375,89 C36.4053125,89 34,91.4053125 34,94.375 L34,115.875 C34,118.844688 36.4053125,121.25 39.375,121.25 L71.625,121.25 L71.625,126.625 L39.375,126.625 C36.4053125,126.625 34,129.030313 34,132 L34,153.5 C34,156.469688 36.4053125,158.875 39.375,158.875 L71.625,158.875 L71.625,164.25 L55.5,164.25 C52.5303125,164.25 50.125,166.655312 50.125,169.625 C50.125,172.594688 52.5303125,175 55.5,175 L98.5,175 C101.469688,175 103.875,172.594688 103.875,169.625 C103.875,166.655312 101.469688,164.25 98.5,164.25 L82.375,164.25 L82.375,158.875 L114.625,158.875 C117.594688,158.875 120,156.469688 120,153.5 L120,132 C120,129.030313 117.594688,126.625 114.625,126.625 L82.375,126.625 L82.375,121.25 L114.625,121.25 L114.625,121.25 Z M103.875,99.75 C106.844688,99.75 109.25,102.155312 109.25,105.125 C109.25,108.094687 106.844688,110.5 103.875,110.5 C100.905312,110.5 98.5,108.094687 98.5,105.125 C98.5,102.155312 100.905312,99.75 103.875,99.75 L103.875,99.75 Z M87.75,99.75 C90.7196875,99.75 93.125,102.155312 93.125,105.125 C93.125,108.094687 90.7196875,110.5 87.75,110.5 C84.7803125,110.5 82.375,108.094687 82.375,105.125 C82.375,102.155312 84.7803125,99.75 87.75,99.75 L87.75,99.75 Z M103.875,137.375 C106.844688,137.375 109.25,139.780313 109.25,142.75 C109.25,145.719687 106.844688,148.125 103.875,148.125 C100.905312,148.125 98.5,145.719687 98.5,142.75 C98.5,139.780313 100.905312,137.375 103.875,137.375 L103.875,137.375 Z M87.75,137.375 C90.7196875,137.375 93.125,139.780313 93.125,142.75 C93.125,145.719687 90.7196875,148.125 87.75,148.125 C84.7803125,148.125 82.375,145.719687 82.375,142.75 C82.375,139.780313 84.7803125,137.375 87.75,137.375 L87.75,137.375 Z" id="Shape" fill="#000000" sketch:type="MSShapeGroup"></path>
    </g>
</svg>