<?xml version="1.0" encoding="UTF-8" standalone="no"?>
<svg width="248px" height="298px" viewBox="0 0 248 298" version="1.1" xmlns="http://www.w3.org/2000/svg" xmlns:xlink="http://www.w3.org/1999/xlink" xmlns:sketch="http://www.bohemiancoding.com/sketch/ns">
    <!-- Generator: Sketch Beta 3.4 (14718) - http://www.bohemiancoding.com/sketch -->
    <title>Slice 1</title>
    <desc>Created with Sketch Beta.</desc>
    <defs></defs>
    <g id="Page-1" stroke="none" stroke-width="1" fill="none" fill-rule="evenodd" sketch:type="MSPage">
        <path d="M231.713345,220.689225 L133.646162,280.799505 C128.566862,283.930823 122.340249,283.930823 117.342469,280.799505 L19.1928385,220.689225 C14.113538,217.557907 11,211.903634 11,205.640507 L11,85.5074867 C11,79.3314091 14.113538,73.5900865 19.1928385,70.4587689 L117.260485,10.3484882 C122.340249,7.21717061 128.566862,7.21717061 133.564178,10.3484882 L231.631361,70.4587689 C236.711125,73.5900865 239.824663,79.2443597 239.824663,85.5074867 L239.824663,205.727556 C239.824663,211.903634 236.711125,217.644957 231.713345,220.689225" id="Fill-3" fill="#FFFFFF" sketch:type="MSShapeGroup"></path>
        <path d="M124.000208,297 C120.247013,297 116.56746,295.98396 113.329752,293.952763 L10.6708719,231.051931 C4.12139961,226.989096 0,219.487628 0,211.439707 L0,85.5602931 C0,77.5123722 4.04775861,70.0109041 10.6708719,65.9480691 L113.329752,3.04723672 C116.56746,1.09378923 120.247013,0 124.000208,0 C127.753403,0 131.432956,1.01604008 134.670664,3.04723672 L237.329544,66.02626 C243.879016,70.089095 248,77.5123722 248,85.638484 L248,211.517456 C248,219.565819 243.952657,227.067287 237.329544,231.130122 L134.670664,294.030512 C131.432956,295.906211 127.753403,297 124.000208,297 L124.000208,297 Z M124.000208,8.90757917 C121.719001,8.90757917 119.511019,9.5326647 117.524377,10.7832775 L14.8654965,73.6836681 C10.8917949,76.1058193 8.38966516,80.7159907 8.38966516,85.5602931 L8.38966516,211.439707 C8.38966516,216.3622 10.8917949,220.894181 14.8654965,223.316332 L117.524377,286.295355 C121.424437,288.717065 126.502338,288.717065 130.476039,286.295355 L233.134504,223.394523 C237.108621,220.972372 239.610751,216.3622 239.610751,211.517456 L239.610751,85.5602931 C239.610751,80.6377998 237.108621,76.1058193 233.134504,73.6836681 L130.476039,10.7832775 C128.489397,9.5326647 126.281415,8.90757917 124.000208,8.90757917 L124.000208,8.90757917 Z" id="Fill-2" fill="#B17DE6" sketch:type="MSShapeGroup"></path>
        <path d="M220.252801,215.045242 L132.165269,269.038496 C127.602856,271.85116 122.009885,271.85116 117.520696,269.038496 L29.3591072,215.045242 C24.7966937,212.232579 22,207.153703 22,201.527934 L22,93.62006 C22,88.0724812 24.7966937,82.9154151 29.3591072,80.1027512 L117.447055,26.109498 C122.009885,23.296834 127.602856,23.296834 132.091628,26.109498 L220.17916,80.1027512 C224.74199,82.9154151 227.538684,87.9942903 227.538684,93.62006 L227.538684,201.606125 C227.538684,207.153703 224.74199,212.310769 220.252801,215.045242" id="Fill-3" fill="#EFEFEF" sketch:type="MSShapeGroup"></path>
        <g id="Group" sketch:type="MSLayerGroup" transform="translate(64.434802, 69.000000)"></g>
        <g id="Shape-+-Shape" sketch:type="MSLayerGroup" transform="translate(46.000000, 93.000000)" fill="#000000">
            <path d="M117.024537,-7.10542736e-15 L4.68053731,-7.10542736e-15 C2.09689552,-7.10542736e-15 7.10542736e-15,2.09504478 7.10542736e-15,4.68053731 L7.10542736e-15,74.8941493 C7.10542736e-15,77.4814925 2.09689552,79.5765373 4.68053731,79.5765373 L27.5002388,79.5765373 L27.5002388,102.981075 L47.3957612,79.5765373 L117.026388,79.5765373 C119.611881,79.5765373 121.706925,77.4814925 121.706925,74.8941493 L121.706925,4.68238806 C121.705075,2.09689552 119.61003,-7.10542736e-15 117.024537,-7.10542736e-15 L117.024537,-7.10542736e-15 Z M98.8853731,56.1738507 L23.4026866,56.1738507 L23.4026866,51.4933134 L98.8853731,51.4933134 L98.8853731,56.1738507 L98.8853731,56.1738507 Z M98.8853731,42.1303881 L23.4026866,42.1303881 L23.4026866,37.4498507 L98.8853731,37.4498507 L98.8853731,42.1303881 L98.8853731,42.1303881 Z M98.8853731,28.0869254 L23.4026866,28.0869254 L23.4026866,23.4063881 L98.8853731,23.4063881 L98.8853731,28.0869254 L98.8853731,28.0869254 Z" id="Shape" sketch:type="MSShapeGroup"></path>
            <path d="M149.893791,33.3134328 L120.948119,33.3134328 L120.948119,42.6745075 L144.650627,42.6745075 L144.650627,93.9549851 L129.820597,93.9549851 L120.459522,93.9549851 L120.459522,98.441194 L119.447164,97.2511642 L116.645134,93.9549851 L112.314388,93.9549851 L74.1390448,93.9549851 L74.1390448,79.6616716 L64.7761194,79.6616716 L64.7761194,99.2 C64.7761194,101.470866 66.6176119,103.31791 68.8903284,103.31791 L112.316239,103.31791 L129.820597,123.907463 L129.820597,103.31606 L149.893791,103.31606 C152.166507,103.31606 154.013552,101.469015 154.013552,99.1981493 L154.013552,37.4313433 C154.011701,35.1567761 152.164657,33.3134328 149.893791,33.3134328 L149.893791,33.3134328 Z" id="Shape" sketch:type="MSShapeGroup"></path>
        </g>
    </g>
</svg>