<?xml version="1.0" encoding="UTF-8" standalone="no"?>
<svg width="37px" height="37px" viewBox="0 0 37 37" version="1.1" xmlns="http://www.w3.org/2000/svg" xmlns:xlink="http://www.w3.org/1999/xlink" xmlns:sketch="http://www.bohemiancoding.com/sketch/ns">
    <!-- Generator: Sketch Beta 3.3.3 (12072) - http://www.bohemiancoding.com/sketch -->
    <title>Slice 1</title>
    <desc>Created with Sketch Beta.</desc>
    <defs></defs>
    <g id="Page-1" stroke="none" stroke-width="1" fill="none" fill-rule="evenodd" sketch:type="MSPage">
        <circle id="Oval-7" fill-opacity="0.3" fill="#D8D8D8" sketch:type="MSShapeGroup" cx="18.5" cy="18.5" r="18.5"></circle>
        <path d="M12.0028657,31.9556329 C11.6986133,31.9556329 11.382604,31.88154 11.1023423,31.7312186 C10.461903,31.3875329 10.0491367,30.7036114 10.0491367,29.9572614 L10.0491367,18.8441543 C10.0491367,17.7403186 10.8880152,16.8457829 11.9556787,16.8457829 C13.0228657,16.8457829 13.8622208,17.7403186 13.8622208,18.8441543 L13.8622208,26.1045971 L21.562903,20.5208543 L10.8095292,12.6287329 C9.93855725,11.9906471 9.74186566,10.74339 10.3589498,9.84277572 C10.9761928,8.94265429 12.1873236,8.73023286 13.0578189,9.36749715 L26.0636133,18.89459 C26.5759965,19.2698186 26.8808844,19.8786614 26.8802488,20.5277543 C26.8794544,21.1768471 26.5742488,21.7850329 26.0612301,22.1589471 L13.1158096,31.5907543 C12.7839124,31.8327471 12.3943423,31.9556329 12.0028657,31.9556329" id="Imported-Layers" fill-opacity="0.6" fill="#FFFFFF" sketch:type="MSShapeGroup" transform="translate(18.500000, 20.500000) rotate(90.000000) translate(-18.500000, -20.500000) "></path>
    </g>
</svg>