<?xml version="1.0" encoding="UTF-8" standalone="no"?>
<svg width="86px" height="39px" viewBox="0 0 86 39" version="1.1" xmlns="http://www.w3.org/2000/svg" xmlns:xlink="http://www.w3.org/1999/xlink" xmlns:sketch="http://www.bohemiancoding.com/sketch/ns">
    <!-- Generator: Sketch Beta 3.3.3 (12072) - http://www.bohemiancoding.com/sketch -->
    <title>Slice 1</title>
    <desc>Created with Sketch Beta.</desc>
    <defs></defs>
    <g id="Page-1" stroke="none" stroke-width="1" fill="none" fill-rule="evenodd" sketch:type="MSPage">
        <g id="logo" sketch:type="MSLayerGroup" fill="#FFFFFF">
            <path d="M85.8472381,6.49233013 L85.8472381,9.32023591 L85.2967181,9.32023591 L85.2967181,7.40741673 C85.2967181,7.35250066 85.2972618,7.27529193 85.2986211,7.17633426 C85.2999804,7.07710472 85.3005241,7.00071157 85.3005241,6.94688295 L84.7646846,9.32023591 L84.1902408,9.32023591 L83.6582074,6.94688295 C83.6582074,7.00071157 83.6587511,7.07710472 83.6601104,7.17633426 C83.6614697,7.27529193 83.6617416,7.35250066 83.6617416,7.40741673 L83.6617416,9.32023591 L83.1112216,9.32023591 L83.1112216,6.49233013 L83.9711202,6.49233013 L84.4860264,8.71615913 L84.9971264,6.49233013 L85.8472381,6.49233013 Z" id="Fill-5" sketch:type="MSShapeGroup"></path>
            <path d="M82.9326084,6.49233013 L82.9326084,6.99309945 L82.0863028,6.99309945 L82.0863028,9.32023591 L81.4917412,9.32023591 L81.4917412,6.99309945 L80.6416296,6.99309945 L80.6416296,6.49233013 L82.9326084,6.49233013" id="Fill-4" sketch:type="MSShapeGroup"></path>
            <path d="M3.61521737,38.0350881 C3.09460215,38.0350881 2.55386915,37.9124784 2.07430505,37.663725 C0.978430389,37.0949902 0.272133598,35.9632298 0.272133598,34.7281619 L0.272133598,16.3380748 C0.272133598,14.5114358 1.70756357,13.0311486 3.53447443,13.0311486 C5.36056972,13.0311486 6.79681527,14.5114358 6.79681527,16.3380748 L6.79681527,28.3527323 L19.9736818,19.1126957 L1.57326387,6.0527297 C0.0829178296,4.99681871 -0.253647,2.93284441 0.802263984,1.44249837 C1.85844683,-0.0470320804 3.93112071,-0.398549306 5.4203793,0.65600237 L27.674981,16.4215363 C28.5517351,17.0424685 29.0734378,18.0499881 29.0723504,19.1241138 C29.0709911,20.1982396 28.5487447,21.2046717 27.6709031,21.823429 L5.51960883,37.431555 C4.95168967,37.8317355 4.28508469,38.0350881 3.61521737,38.0350881" id="Fill-1" sketch:type="MSShapeGroup"></path>
            <path d="M55.7805911,28.3157592 C55.7805911,29.8286697 55.5465181,31.2023871 55.0805471,32.4379987 C54.6140324,33.6730665 53.9650984,34.7322399 53.1332015,35.6152468 C52.3010327,36.4974381 51.2921538,37.1781799 50.1073804,37.6572003 C48.9220632,38.1359488 47.6114178,38.3760027 46.1740848,38.3760027 C43.8795717,38.3760027 41.938207,37.8146082 40.3497189,36.6931786 C38.7612308,35.5709333 37.6770462,34.0012036 37.0971651,31.9842614 L38.5722869,31.9842614 C39.126613,33.5727495 40.0596424,34.8021083 41.3708316,35.671794 C42.681477,36.5417516 44.2830145,36.9767304 46.1740848,36.9767304 C47.4091526,36.9767304 48.5379226,36.7747371 49.5590352,36.3715661 C50.5801479,35.9678514 51.4435808,35.3882422 52.1496057,34.6319229 C52.8553588,33.8756035 53.403432,32.9610606 53.7949129,31.8899254 C54.1855783,30.8177027 54.3810469,29.6264046 54.3810469,28.3157592 L54.3810469,24.3066141 C53.5991725,25.8197966 52.4899766,27.0363778 51.0529155,27.9563579 C49.6158543,28.8766099 47.9640224,29.3368718 46.0985072,29.3368718 C44.761763,29.3368718 43.5011402,29.0720785 42.3163667,28.5424918 C41.1310495,28.013177 40.0974312,27.2821408 39.214968,26.3491114 C38.332233,25.4166256 37.6389855,24.3386938 37.1349539,23.115316 C36.6301066,21.8927538 36.3786345,20.5753118 36.3786345,19.1629901 C36.3786345,17.7514839 36.6301066,16.4209926 37.1349539,15.1728754 C37.6389855,13.92503 38.332233,12.8348644 39.214968,11.9015631 C40.0974312,10.9693492 41.1310495,10.2317883 42.3163667,9.68915228 C43.5011402,9.14705998 44.761763,8.87601383 46.0985072,8.87601383 C47.9640224,8.87601383 49.6158543,9.33627575 51.0529155,10.2562559 C52.4899766,11.1770516 53.5991725,12.4064103 54.3810469,13.9440603 L54.3810469,9.36753985 L55.7805911,9.36753985 L55.7805911,28.3157592 L55.7805911,28.3157592 Z M53.7571242,15.608126 C53.3411757,14.5242133 52.7672756,13.5911838 52.0362394,12.8093094 C51.3046594,12.0279788 50.4347019,11.4165618 49.4266386,10.9750583 C48.4177597,10.5340986 47.3085638,10.313075 46.0985072,10.313075 C44.9384732,10.313075 43.8540167,10.5466042 42.8459534,11.0128471 C41.8370745,11.4796337 40.9548831,12.1095373 40.1982919,12.9039173 C39.4419726,13.6982973 38.849314,14.6378515 38.4208599,15.7214924 C37.9918621,16.805677 37.7779069,17.9529335 37.7779069,19.1629901 C37.7779069,20.3733185 37.9918621,21.5080694 38.4208599,22.5669709 C38.849314,23.6258723 39.4419726,24.5523771 40.1982919,25.3467571 C40.9548831,26.1408653 41.8370745,26.7650598 42.8459534,27.218797 C43.8540167,27.6728061 44.9384732,27.8998107 46.0985072,27.8998107 C47.3085638,27.8998107 48.4177597,27.6858555 49.4266386,27.2568577 C50.4347019,26.8281317 51.3046594,26.2232394 52.0362394,25.441365 C52.7672756,24.6600344 53.3411757,23.7335296 53.7571242,22.6615788 C54.1730726,21.5901717 54.3810469,20.4241567 54.3810469,19.1629901 C54.3810469,17.8773559 54.1730726,16.6923106 53.7571242,15.608126 L53.7571242,15.608126 Z" id="Fill-2" sketch:type="MSShapeGroup"></path>
            <path d="M70.5679665,9.68915228 C71.7530118,10.2317883 72.7863583,10.9693492 73.6693652,11.9015631 C74.5518284,12.8348644 75.2513286,13.92503 75.7684097,15.1728754 C76.284947,16.4209926 76.5437593,17.7514839 76.5437593,19.1629901 C76.5437593,20.5753118 76.284947,21.8927538 75.7684097,23.115316 C75.2513286,24.3386938 74.5518284,25.4101009 73.6693652,26.330081 C72.7863583,27.2508767 71.7530118,27.9753883 70.5679665,28.5047031 C69.3826493,29.0342897 68.1220265,29.2988112 66.7860979,29.2988112 C65.4493537,29.2988112 64.1955274,29.0342897 63.0227159,28.5047031 C61.8504481,27.9753883 60.8230826,27.2508767 59.9403475,26.330081 C59.0576124,25.4101009 58.3578403,24.3386938 57.8415749,23.115316 C57.324222,21.8927538 57.0662252,20.5753118 57.0662252,19.1629901 C57.0662252,17.7514839 57.324222,16.4209926 57.8415749,15.1728754 C58.3578403,13.92503 59.0576124,12.8348644 59.9403475,11.9015631 C60.8230826,10.9693492 61.8504481,10.2317883 63.0227159,9.68915228 C64.1955274,9.14705998 65.4493537,8.87601383 66.7860979,8.87601383 C68.1220265,8.87601383 69.3826493,9.14705998 70.5679665,9.68915228 M70.0386517,27.2756162 C71.046715,26.8093733 71.9297219,26.1789259 72.6860413,25.3845459 C73.4426325,24.5904378 74.0344755,23.6576802 74.4634733,22.5860012 C74.8919274,21.5145941 75.1066982,20.3733185 75.1066982,19.1629901 C75.1066982,17.9279222 74.8919274,16.76816 74.4634733,15.6837036 C74.0344755,14.5997908 73.4426325,13.647731 72.6860413,12.8280679 C71.9297219,12.0092203 71.046715,11.3659955 70.0386517,10.8994807 C69.0297728,10.4332379 67.9455882,10.1994368 66.7860979,10.1994368 C65.651347,10.1994368 64.5793962,10.4332379 63.5713329,10.8994807 C62.5627258,11.3659955 61.6802626,12.0092203 60.9239433,12.8280679 C60.1673521,13.647731 59.5681688,14.5997908 59.1274809,15.6837036 C58.6859774,16.76816 58.4657694,17.9279222 58.4657694,19.1629901 C58.4657694,20.3733185 58.6859774,21.5145941 59.1274809,22.5860012 C59.5681688,23.6576802 60.1673521,24.5904378 60.9239433,25.3845459 C61.6802626,26.1789259 62.5627258,26.8093733 63.5713329,27.2756162 C64.5793962,27.7426746 65.651347,27.9753883 66.7860979,27.9753883 C67.9455882,27.9753883 69.0297728,27.7426746 70.0386517,27.2756162" id="Fill-3" sketch:type="MSShapeGroup"></path>
        </g>
    </g>
</svg>